<?xml version="1.0" standalone="no"?>
<!DOCTYPE svg PUBLIC "-//W3C//DTD SVG 20010904//EN"
 "http://www.w3.org/TR/2001/REC-SVG-20010904/DTD/svg10.dtd">
<svg version="1.0" xmlns="http://www.w3.org/2000/svg"
 width="1080.000000pt" height="1080.000000pt" viewBox="0 0 1080.000000 1080.000000"
 preserveAspectRatio="xMidYMid meet">

<g transform="translate(0.000000,1080.000000) scale(0.100000,-0.100000)"
fill="#000000" stroke="none">
<path d="M0 5400 l0 -5400 5400 0 5400 0 0 5400 0 5400 -5400 0 -5400 0 0
-5400z m2970 1930 l0 -1420 545 0 545 0 0 1420 0 1420 780 0 780 0 0 -3510 0
-3510 -780 0 -780 0 0 1530 0 1530 -545 0 -545 0 0 -1530 0 -1530 -775 0 -775
0 0 3510 0 3510 775 0 775 0 0 -1420z m6748 893 l2 -523 -745 0 -745 0 2 -882
3 -883 643 -3 642 -2 0 -540 0 -540 -645 0 -645 0 0 -1560 0 -1560 -775 0
-775 0 0 3510 0 3510 1518 -2 1517 -3 3 -522z"/>
</g>
</svg>
